# xmcd
# 
# Track frame offsets:
#     150
#     14968
#     28589
#     41971
#     63477
#     80692
#     92797
#     109681
#     127611
#     143584
#     177238
#     191769
# 
# Disc length: 2698
# 
# Revision: 0
# Processed by: cddbd v1.5.2PL0 Copyright (c) Steve Scherf et al.
# Submitted via: fre:ac v1.0.27
# 
DISCID=a50a880c
DTITLE=長見 順 - OYAZI
DYEAR=2003
DGENRE=Blues
TTITLE0=一家離散の唄
TTITLE1=ザンゲ
TTITLE2=Pブギ (Inst.)
TTITLE3=夏に生まれた夏子さん
TTITLE4=山
TTITLE5=温泉にゆこう
TTITLE6=あっしにはかかわりのねえことでござんす (Inst.)
TTITLE7=Fat Man ブルース
TTITLE8=たぬきのロックンロール
TTITLE9=OYAZI
TTITLE10=91 (思春期老女の唄)
TTITLE11=夜
EXTD=
EXTT0=
EXTT1=
EXTT2=
EXTT3=
EXTT4=
EXTT5=
EXTT6=
EXTT7=
EXTT8=
EXTT9=
EXTT10=
EXTT11=
PLAYORDER=
